<svg width="30" height="32" viewBox="0 0 30 32" fill="none" xmlns="http://www.w3.org/2000/svg">
<path d="M19.3235 31.979C24.9025 31.979 29.4252 26.8071 29.4252 20.4272C29.4252 14.0472 24.9025 8.87531 19.3235 8.87531C13.7445 8.87531 9.2218 14.0472 9.2218 20.4272C9.2218 26.8071 13.7445 31.979 19.3235 31.979Z" fill="#0C6667"/>
<path d="M1.36542 16.6594C-0.455142 18.7413 -0.455142 22.1271 1.36542 24.209L3.01561 26.0961C4.83617 28.178 7.79693 28.178 9.61749 26.0961L16.2194 18.5464L7.96731 9.10974L1.36542 16.6594Z" fill="#F4D6B0"/>
<path d="M22.8201 10.9981C24.6407 8.91622 24.6407 5.53043 22.8201 3.44851L21.17 1.56144C19.3494 -0.52048 16.3886 -0.52048 14.5681 1.56144L7.96619 9.11106L16.2183 18.5478L22.8201 10.9981Z" fill="#F27261"/>
<path d="M25.0911 18.9828H22.7571V16.3137C22.7571 14.839 21.7126 13.6445 20.423 13.6445C19.1334 13.6445 18.089 14.839 18.089 16.3137V18.9828H15.7549C14.4653 18.9828 13.4208 20.1772 13.4208 21.6519C13.4208 23.1266 14.4653 24.321 15.7549 24.321H18.089V26.9902C18.089 28.4649 19.1334 29.6593 20.423 29.6593C21.7126 29.6593 22.7571 28.4649 22.7571 26.9902V24.321H25.0911C26.3807 24.321 27.4252 23.1266 27.4252 21.6519C27.4252 20.1772 26.3807 18.9828 25.0911 18.9828Z" fill="#01A59C"/>
</svg>
