<svg width="20" height="20" viewBox="0 0 20 20" fill="none" xmlns="http://www.w3.org/2000/svg">
<path d="M7.04931 18.7821V15.7152C7.0493 14.9381 7.68125 14.3067 8.46401 14.3018H11.3382C12.1245 14.3018 12.7618 14.9346 12.7618 15.7152V18.7732C12.7618 19.4473 13.3096 19.9951 13.9885 20H15.9494C16.8652 20.0023 17.7443 19.6428 18.3927 19.0007C19.0412 18.3586 19.4056 17.4868 19.4056 16.5775V7.86585C19.4056 7.13139 19.0776 6.43471 18.5102 5.9635L11.8486 0.674268C10.6841 -0.250877 9.02095 -0.220992 7.89097 0.745384L1.37259 5.9635C0.778319 6.42082 0.423131 7.11956 0.405579 7.86585V16.5686C0.405579 18.4637 1.95296 20 3.86175 20H5.77787C6.10475 20.0023 6.41907 19.8751 6.65105 19.6464C6.88304 19.4178 7.0135 19.1067 7.0135 18.7821H7.04931Z" fill="#407CE2"/>
</svg>
