<svg width="23" height="22" viewBox="0 0 23 22" fill="none" xmlns="http://www.w3.org/2000/svg">
<path d="M19.6389 15.0818L17.942 13.3849L20.3662 10.9606C20.7703 10.5566 21.0834 10.0818 21.3056 9.53637C21.5278 8.99091 21.6389 8.42525 21.6389 7.8394C21.6389 6.62727 21.2096 5.59192 20.3511 4.73334C19.4925 3.87475 18.4571 3.44546 17.245 3.44546C16.6591 3.44546 16.0935 3.55657 15.548 3.77879C15.0026 4.00101 14.5278 4.31414 14.1238 4.71818L11.6995 7.14243L10.0026 5.44546L12.4268 3.02121C13.0733 2.37475 13.8107 1.8798 14.6389 1.53637C15.4672 1.19293 16.3359 1.02121 17.245 1.02121C19.144 1.02121 20.7551 1.68283 22.0783 3.00606C23.4016 4.32929 24.0632 5.94041 24.0632 7.8394C24.0632 8.74849 23.8915 9.61717 23.548 10.4455C23.2046 11.2737 22.7096 12.0111 22.0632 12.6576L19.6389 15.0818ZM9.06318 20.4152C9.64904 20.4152 10.2147 20.304 10.7601 20.0818C11.3056 19.8596 11.7804 19.5465 12.1844 19.1424L14.5177 16.8091L8.2753 10.5667L5.94197 12.9C5.53793 13.304 5.22479 13.7788 5.00257 14.3242C4.78035 14.8697 4.66924 15.4354 4.66924 16.0212C4.66924 17.2333 5.09853 18.2687 5.95712 19.1273C6.8157 19.9859 7.85106 20.4152 9.06318 20.4152ZM22.6086 24.9L16.2147 18.5061L13.8814 20.8394C13.2349 21.4859 12.4975 21.9808 11.6692 22.3242C10.841 22.6677 9.97227 22.8394 9.06318 22.8394C7.16419 22.8394 5.55308 22.1778 4.22985 20.8545C2.90661 19.5313 2.245 17.9202 2.245 16.0212C2.245 15.1121 2.41671 14.2434 2.76015 13.4152C3.10358 12.5869 3.59853 11.8495 4.245 11.203L6.57833 8.8697L0.305603 2.59697L2.00257 0.900002L24.3056 23.203L22.6086 24.9Z" fill="#407CE2"/>
</svg>
