<svg width="25" height="24" viewBox="0 0 25 24" fill="none" xmlns="http://www.w3.org/2000/svg">
<path d="M8.40558 24C6.31669 24 4.54447 23.2722 3.08891 21.8167C1.63336 20.3611 0.905579 18.5889 0.905579 16.5C0.905579 15.5 1.09447 14.5444 1.47225 13.6333C1.85002 12.7222 2.39447 11.9111 3.10558 11.2L12.1056 2.2C12.8167 1.48889 13.6278 0.944444 14.5389 0.566667C15.45 0.188889 16.4056 0 17.4056 0C19.4945 0 21.2667 0.727778 22.7222 2.18333C24.1778 3.63889 24.9056 5.41111 24.9056 7.5C24.9056 8.5 24.7167 9.45556 24.3389 10.3667C23.9611 11.2778 23.4167 12.0889 22.7056 12.8L13.7056 21.8C12.9945 22.5111 12.1834 23.0556 11.2722 23.4333C10.3611 23.8111 9.40558 24 8.40558 24ZM17.2722 14.4667L20.8389 10.9333C21.2834 10.4889 21.6278 9.96667 21.8722 9.36667C22.1167 8.76667 22.2389 8.14444 22.2389 7.5C22.2389 6.16667 21.7667 5.02778 20.8222 4.08333C19.8778 3.13889 18.7389 2.66667 17.4056 2.66667C16.7611 2.66667 16.1389 2.78889 15.5389 3.03333C14.9389 3.27778 14.4167 3.62222 13.9722 4.06667L10.4389 7.63333L17.2722 14.4667ZM8.40558 21.3333C9.05002 21.3333 9.67224 21.2111 10.2722 20.9667C10.8722 20.7222 11.3945 20.3778 11.8389 19.9333L15.3722 16.3667L8.53891 9.53333L4.97225 13.0667C4.5278 13.5111 4.18336 14.0333 3.93891 14.6333C3.69447 15.2333 3.57225 15.8556 3.57225 16.5C3.57225 17.8333 4.04447 18.9722 4.98891 19.9167C5.93336 20.8611 7.07225 21.3333 8.40558 21.3333Z" fill="#407CE2"/>
</svg>
