<svg width="25" height="25" viewBox="0 0 25 25" fill="none" xmlns="http://www.w3.org/2000/svg">
<path d="M19.6389 15.0818L17.9419 13.3849L20.3661 10.9606C20.7702 10.5566 21.0833 10.0818 21.3055 9.53639C21.5278 8.99093 21.6389 8.42528 21.6389 7.83942C21.6389 6.6273 21.2096 5.59194 20.351 4.73336C19.4924 3.87477 18.4571 3.44548 17.2449 3.44548C16.6591 3.44548 16.0934 3.55659 15.548 3.77881C15.0025 4.00103 14.5278 4.31417 14.1237 4.71821L11.6995 7.14245L10.0025 5.44548L12.4268 3.02124C13.0732 2.37477 13.8106 1.87982 14.6389 1.53639C15.4672 1.19295 16.3358 1.02124 17.2449 1.02124C19.1439 1.02124 20.755 1.68285 22.0783 3.00609C23.4015 4.32932 24.0631 5.94043 24.0631 7.83942C24.0631 8.74851 23.8914 9.6172 23.548 10.4455C23.2045 11.2738 22.7096 12.0111 22.0631 12.6576L19.6389 15.0818ZM9.06312 20.4152C9.64898 20.4152 10.2146 20.3041 10.7601 20.0818C11.3055 19.8596 11.7803 19.5465 12.1843 19.1424L14.5177 16.8091L8.27524 10.5667L5.94191 12.9C5.53787 13.3041 5.22473 13.7788 5.00251 14.3243C4.78029 14.8697 4.66918 15.4354 4.66918 16.0212C4.66918 17.2334 5.09847 18.2687 5.95706 19.1273C6.81564 19.9859 7.851 20.4152 9.06312 20.4152ZM22.6086 24.9L16.2146 18.5061L13.8813 20.8394C13.2348 21.4859 12.4975 21.9808 11.6692 22.3243C10.8409 22.6677 9.97221 22.8394 9.06312 22.8394C7.16413 22.8394 5.55302 22.1778 4.22978 20.8546C2.90655 19.5313 2.24494 17.9202 2.24494 16.0212C2.24494 15.1121 2.41665 14.2435 2.76009 13.4152C3.10352 12.5869 3.59847 11.8495 4.24494 11.2031L6.57827 8.86972L0.305542 2.59699L2.00251 0.900024L24.3055 23.2031L22.6086 24.9Z" fill="#221F1F" fill-opacity="0.6"/>
</svg>
