<svg width="25" height="24" viewBox="0 0 25 24" fill="none" xmlns="http://www.w3.org/2000/svg">
<path d="M8.40552 24C6.31663 24 4.54441 23.2722 3.08885 21.8167C1.6333 20.3611 0.905518 18.5889 0.905518 16.5C0.905518 15.5 1.09441 14.5444 1.47218 13.6333C1.84996 12.7222 2.39441 11.9111 3.10552 11.2L12.1055 2.2C12.8166 1.48889 13.6277 0.944444 14.5389 0.566667C15.45 0.188889 16.4055 0 17.4055 0C19.4944 0 21.2666 0.727778 22.7222 2.18333C24.1777 3.63889 24.9055 5.41111 24.9055 7.5C24.9055 8.5 24.7166 9.45555 24.3389 10.3667C23.9611 11.2778 23.4166 12.0889 22.7055 12.8L13.7055 21.8C12.9944 22.5111 12.1833 23.0556 11.2722 23.4333C10.3611 23.8111 9.40552 24 8.40552 24ZM17.2722 14.4667L20.8389 10.9333C21.2833 10.4889 21.6277 9.96667 21.8722 9.36667C22.1166 8.76667 22.2388 8.14444 22.2388 7.5C22.2388 6.16667 21.7666 5.02778 20.8222 4.08333C19.8777 3.13889 18.7388 2.66667 17.4055 2.66667C16.7611 2.66667 16.1389 2.78889 15.5389 3.03333C14.9389 3.27778 14.4166 3.62222 13.9722 4.06667L10.4389 7.63333L17.2722 14.4667ZM8.40552 21.3333C9.04996 21.3333 9.67218 21.2111 10.2722 20.9667C10.8722 20.7222 11.3944 20.3778 11.8389 19.9333L15.3722 16.3667L8.53885 9.53333L4.97218 13.0667C4.52774 13.5111 4.1833 14.0333 3.93885 14.6333C3.69441 15.2333 3.57218 15.8556 3.57218 16.5C3.57218 17.8333 4.04441 18.9722 4.98885 19.9167C5.9333 20.8611 7.07218 21.3333 8.40552 21.3333Z" fill="#221F1F" fill-opacity="0.5"/>
</svg>
